<mxfile host="65bd71144e">
    <diagram id="SHgJJE0tpX5uUEAmSyRr" name="AI Architecture Diagram">
        <mxGraphModel dx="1036" dy="804" grid="1" gridSize="10" guides="1" tooltips="1" connect="1" arrows="1" fold="1" page="1" pageScale="1" pageWidth="850" pageHeight="1100" background="#ffffff" math="0" shadow="0">
            <root>
                <mxCell id="0"/>
                <mxCell id="1" parent="0"/>
                <mxCell id="FruslANA-jMCCo8gGC-M-1" value="AIcruter - AI Architecture" style="text;html=1;strokeColor=none;fillColor=none;align=center;verticalAlign=middle;whiteSpace=wrap;rounded=1;fontSize=24;fontStyle=1" parent="1" vertex="1">
                    <mxGeometry x="225" y="10" width="400" height="40" as="geometry"/>
                </mxCell>
                <mxCell id="FruslANA-jMCCo8gGC-M-2" value="AI Core System" style="rounded=1;whiteSpace=wrap;html=1;fillColor=#d5e8d4;strokeColor=#82b366;verticalAlign=top;fontStyle=1;fontSize=14;" parent="1" vertex="1">
                    <mxGeometry x="275" y="280" width="300" height="260" as="geometry"/>
                </mxCell>
                <mxCell id="FruslANA-jMCCo8gGC-M-3" value="Resume Analysis Model&#xa;(NLP/Text Classification)" style="rounded=1;whiteSpace=wrap;html=1;fillColor=#dae8fc;strokeColor=#6c8ebf;" parent="1" vertex="1">
                    <mxGeometry x="295" y="320" width="120" height="60" as="geometry"/>
                </mxCell>
                <mxCell id="FruslANA-jMCCo8gGC-M-4" value="Job-Candidate Matching&#xa;(Vector Similarity)" style="rounded=1;whiteSpace=wrap;html=1;fillColor=#dae8fc;strokeColor=#6c8ebf;" parent="1" vertex="1">
                    <mxGeometry x="435" y="320" width="120" height="60" as="geometry"/>
                </mxCell>
                <mxCell id="FruslANA-jMCCo8gGC-M-5" value="Candidate Ranking&#xa;(Scoring Algorithm)" style="rounded=1;whiteSpace=wrap;html=1;fillColor=#dae8fc;strokeColor=#6c8ebf;" parent="1" vertex="1">
                    <mxGeometry x="295" y="400" width="120" height="60" as="geometry"/>
                </mxCell>
                <mxCell id="FruslANA-jMCCo8gGC-M-6" value="Job Recommendation&#xa;(Collaborative Filtering)" style="rounded=1;whiteSpace=wrap;html=1;fillColor=#dae8fc;strokeColor=#6c8ebf;" parent="1" vertex="1">
                    <mxGeometry x="435" y="400" width="120" height="60" as="geometry"/>
                </mxCell>
                <mxCell id="FruslANA-jMCCo8gGC-M-7" value="AI Orchestrator&#xa;(Model Selection &amp; Pipeline Management)" style="rounded=1;whiteSpace=wrap;html=1;fillColor=#fff2cc;strokeColor=#d6b656;" parent="1" vertex="1">
                    <mxGeometry x="295" y="480" width="260" height="40" as="geometry"/>
                </mxCell>
                <mxCell id="FruslANA-jMCCo8gGC-M-8" value="Data Sources" style="rounded=1;whiteSpace=wrap;html=1;fillColor=#f5f5f5;strokeColor=#666666;fontColor=#333333;verticalAlign=top;fontStyle=1" parent="1" vertex="1">
                    <mxGeometry x="40" y="280" width="160" height="200" as="geometry"/>
                </mxCell>
                <mxCell id="FruslANA-jMCCo8gGC-M-9" value="Resumes" style="shape=cylinder3;whiteSpace=wrap;html=1;boundedLbl=1;backgroundOutline=1;size=15;fillColor=#f8cecc;strokeColor=#b85450;rounded=1;" parent="1" vertex="1">
                    <mxGeometry x="60" y="320" width="60" height="60" as="geometry"/>
                </mxCell>
                <mxCell id="FruslANA-jMCCo8gGC-M-10" value="Job Listings" style="shape=cylinder3;whiteSpace=wrap;html=1;boundedLbl=1;backgroundOutline=1;size=15;fillColor=#f8cecc;strokeColor=#b85450;rounded=1;" parent="1" vertex="1">
                    <mxGeometry x="130" y="320" width="60" height="60" as="geometry"/>
                </mxCell>
                <mxCell id="FruslANA-jMCCo8gGC-M-11" value="Applications" style="shape=cylinder3;whiteSpace=wrap;html=1;boundedLbl=1;backgroundOutline=1;size=15;fillColor=#f8cecc;strokeColor=#b85450;rounded=1;" parent="1" vertex="1">
                    <mxGeometry x="60" y="400" width="60" height="60" as="geometry"/>
                </mxCell>
                <mxCell id="FruslANA-jMCCo8gGC-M-12" value="User Activity" style="shape=cylinder3;whiteSpace=wrap;html=1;boundedLbl=1;backgroundOutline=1;size=15;fillColor=#f8cecc;strokeColor=#b85450;rounded=1;" parent="1" vertex="1">
                    <mxGeometry x="130" y="400" width="60" height="60" as="geometry"/>
                </mxCell>
                <mxCell id="FruslANA-jMCCo8gGC-M-13" value="AI Services Consumers" style="rounded=1;whiteSpace=wrap;html=1;fillColor=#f5f5f5;strokeColor=#666666;fontColor=#333333;verticalAlign=top;fontStyle=1" parent="1" vertex="1">
                    <mxGeometry x="650" y="280" width="160" height="260" as="geometry"/>
                </mxCell>
                <mxCell id="FruslANA-jMCCo8gGC-M-14" value="Employer UI" style="rounded=1;whiteSpace=wrap;html=1;fillColor=#e1d5e7;strokeColor=#9673a6;" parent="1" vertex="1">
                    <mxGeometry x="670" y="320" width="120" height="40" as="geometry"/>
                </mxCell>
                <mxCell id="FruslANA-jMCCo8gGC-M-15" value="Applicant UI" style="rounded=1;whiteSpace=wrap;html=1;fillColor=#e1d5e7;strokeColor=#9673a6;" parent="1" vertex="1">
                    <mxGeometry x="670" y="380" width="120" height="40" as="geometry"/>
                </mxCell>
                <mxCell id="FruslANA-jMCCo8gGC-M-16" value="API Services" style="rounded=1;whiteSpace=wrap;html=1;fillColor=#e1d5e7;strokeColor=#9673a6;" parent="1" vertex="1">
                    <mxGeometry x="670" y="440" width="120" height="40" as="geometry"/>
                </mxCell>
                <mxCell id="FruslANA-jMCCo8gGC-M-17" value="Notification System" style="rounded=1;whiteSpace=wrap;html=1;fillColor=#e1d5e7;strokeColor=#9673a6;" parent="1" vertex="1">
                    <mxGeometry x="670" y="500" width="120" height="40" as="geometry"/>
                </mxCell>
                <mxCell id="FruslANA-jMCCo8gGC-M-18" value="AI Use Cases" style="rounded=1;whiteSpace=wrap;html=1;fillColor=#ffe6cc;strokeColor=#d79b00;verticalAlign=top;fontStyle=1" parent="1" vertex="1">
                    <mxGeometry x="275" y="120" width="300" height="130" as="geometry"/>
                </mxCell>
                <mxCell id="FruslANA-jMCCo8gGC-M-19" value="Potential Candidates Identification" style="ellipse;whiteSpace=wrap;html=1;fillColor=#fff2cc;strokeColor=#d6b656;rounded=1;" parent="1" vertex="1">
                    <mxGeometry x="287.5" y="150" width="130" height="40" as="geometry"/>
                </mxCell>
                <mxCell id="FruslANA-jMCCo8gGC-M-20" value="Best Candidates Ranking" style="ellipse;whiteSpace=wrap;html=1;fillColor=#fff2cc;strokeColor=#d6b656;rounded=1;" parent="1" vertex="1">
                    <mxGeometry x="432.5" y="150" width="130" height="40" as="geometry"/>
                </mxCell>
                <mxCell id="FruslANA-jMCCo8gGC-M-21" value="Job Recommendation" style="ellipse;whiteSpace=wrap;html=1;fillColor=#fff2cc;strokeColor=#d6b656;rounded=1;" parent="1" vertex="1">
                    <mxGeometry x="287.5" y="200" width="130" height="40" as="geometry"/>
                </mxCell>
                <mxCell id="FruslANA-jMCCo8gGC-M-22" value="Resume-Job Matching" style="ellipse;whiteSpace=wrap;html=1;fillColor=#fff2cc;strokeColor=#d6b656;rounded=1;" parent="1" vertex="1">
                    <mxGeometry x="432.5" y="200" width="130" height="40" as="geometry"/>
                </mxCell>
                <mxCell id="FruslANA-jMCCo8gGC-M-23" value="" style="endArrow=classic;html=1;rounded=1;exitX=1;exitY=0.5;exitDx=0;exitDy=0;entryX=0;entryY=0.5;entryDx=0;entryDy=0;" parent="1" source="FruslANA-jMCCo8gGC-M-8" target="FruslANA-jMCCo8gGC-M-2" edge="1">
                    <mxGeometry width="50" height="50" relative="1" as="geometry">
                        <mxPoint x="400" y="410" as="sourcePoint"/>
                        <mxPoint x="450" y="360" as="targetPoint"/>
                    </mxGeometry>
                </mxCell>
                <mxCell id="FruslANA-jMCCo8gGC-M-24" value="Input Data" style="edgeLabel;html=1;align=center;verticalAlign=middle;resizable=0;points=[];rounded=1;" parent="FruslANA-jMCCo8gGC-M-23" vertex="1" connectable="0">
                    <mxGeometry x="-0.0667" y="1" relative="1" as="geometry">
                        <mxPoint as="offset"/>
                    </mxGeometry>
                </mxCell>
                <mxCell id="FruslANA-jMCCo8gGC-M-25" value="" style="endArrow=classic;html=1;rounded=1;exitX=1;exitY=0.5;exitDx=0;exitDy=0;entryX=0;entryY=0.5;entryDx=0;entryDy=0;" parent="1" source="FruslANA-jMCCo8gGC-M-2" target="FruslANA-jMCCo8gGC-M-13" edge="1">
                    <mxGeometry width="50" height="50" relative="1" as="geometry">
                        <mxPoint x="400" y="410" as="sourcePoint"/>
                        <mxPoint x="450" y="360" as="targetPoint"/>
                    </mxGeometry>
                </mxCell>
                <mxCell id="FruslANA-jMCCo8gGC-M-26" value="AI Results" style="edgeLabel;html=1;align=center;verticalAlign=middle;resizable=0;points=[];rounded=1;" parent="FruslANA-jMCCo8gGC-M-25" vertex="1" connectable="0">
                    <mxGeometry x="-0.0667" y="1" relative="1" as="geometry">
                        <mxPoint as="offset"/>
                    </mxGeometry>
                </mxCell>
                <mxCell id="FruslANA-jMCCo8gGC-M-27" value="" style="endArrow=classic;html=1;rounded=1;exitX=0.5;exitY=1;exitDx=0;exitDy=0;entryX=0.5;entryY=0;entryDx=0;entryDy=0;" parent="1" source="FruslANA-jMCCo8gGC-M-18" target="FruslANA-jMCCo8gGC-M-2" edge="1">
                    <mxGeometry width="50" height="50" relative="1" as="geometry">
                        <mxPoint x="400" y="410" as="sourcePoint"/>
                        <mxPoint x="450" y="360" as="targetPoint"/>
                    </mxGeometry>
                </mxCell>
                <mxCell id="FruslANA-jMCCo8gGC-M-28" value="Triggers" style="edgeLabel;html=1;align=center;verticalAlign=middle;resizable=0;points=[];rounded=1;" parent="FruslANA-jMCCo8gGC-M-27" vertex="1" connectable="0">
                    <mxGeometry x="-0.0667" y="1" relative="1" as="geometry">
                        <mxPoint as="offset"/>
                    </mxGeometry>
                </mxCell>
                <mxCell id="FruslANA-jMCCo8gGC-M-29" value="" style="curved=1;endArrow=classic;html=1;rounded=1;exitX=0.25;exitY=0;exitDx=0;exitDy=0;entryX=0.75;entryY=0;entryDx=0;entryDy=0;" parent="1" source="FruslANA-jMCCo8gGC-M-13" target="FruslANA-jMCCo8gGC-M-8" edge="1">
                    <mxGeometry width="50" height="50" relative="1" as="geometry">
                        <mxPoint x="400" y="410" as="sourcePoint"/>
                        <mxPoint x="450" y="360" as="targetPoint"/>
                        <Array as="points">
                            <mxPoint x="560" y="220"/>
                            <mxPoint x="420" y="80"/>
                            <mxPoint x="240" y="150"/>
                            <mxPoint x="180" y="230"/>
                        </Array>
                    </mxGeometry>
                </mxCell>
                <mxCell id="FruslANA-jMCCo8gGC-M-30" value="Feedback Loop&#xa;(User interactions &amp; outcomes)" style="edgeLabel;html=1;align=center;verticalAlign=middle;resizable=0;points=[];rounded=1;" parent="FruslANA-jMCCo8gGC-M-29" vertex="1" connectable="0">
                    <mxGeometry x="0.0986" y="-2" relative="1" as="geometry">
                        <mxPoint x="33" y="-11" as="offset"/>
                    </mxGeometry>
                </mxCell>
                <mxCell id="FruslANA-jMCCo8gGC-M-31" value="AI Analysis Components" style="rounded=1;whiteSpace=wrap;html=1;fillColor=#f5f5f5;strokeColor=#666666;fontColor=#333333;verticalAlign=top;fontStyle=1" parent="1" vertex="1">
                    <mxGeometry x="275" y="570" width="300" height="130" as="geometry"/>
                </mxCell>
                <mxCell id="FruslANA-jMCCo8gGC-M-32" value="NLP Processing" style="rounded=1;whiteSpace=wrap;html=1;fillColor=#d5e8d4;strokeColor=#82b366;" parent="1" vertex="1">
                    <mxGeometry x="295" y="610" width="120" height="30" as="geometry"/>
                </mxCell>
                <mxCell id="FruslANA-jMCCo8gGC-M-33" value="Skill Extraction" style="rounded=1;whiteSpace=wrap;html=1;fillColor=#d5e8d4;strokeColor=#82b366;" parent="1" vertex="1">
                    <mxGeometry x="435" y="610" width="120" height="30" as="geometry"/>
                </mxCell>
                <mxCell id="FruslANA-jMCCo8gGC-M-34" value="Semantic Matching" style="rounded=1;whiteSpace=wrap;html=1;fillColor=#d5e8d4;strokeColor=#82b366;" parent="1" vertex="1">
                    <mxGeometry x="295" y="650" width="120" height="30" as="geometry"/>
                </mxCell>
                <mxCell id="FruslANA-jMCCo8gGC-M-35" value="Score Generation" style="rounded=1;whiteSpace=wrap;html=1;fillColor=#d5e8d4;strokeColor=#82b366;" parent="1" vertex="1">
                    <mxGeometry x="435" y="650" width="120" height="30" as="geometry"/>
                </mxCell>
                <mxCell id="FruslANA-jMCCo8gGC-M-36" value="" style="endArrow=classic;html=1;rounded=1;exitX=0.5;exitY=0;exitDx=0;exitDy=0;entryX=0.5;entryY=1;entryDx=0;entryDy=0;" parent="1" source="FruslANA-jMCCo8gGC-M-31" target="FruslANA-jMCCo8gGC-M-2" edge="1">
                    <mxGeometry width="50" height="50" relative="1" as="geometry">
                        <mxPoint x="400" y="410" as="sourcePoint"/>
                        <mxPoint x="450" y="360" as="targetPoint"/>
                    </mxGeometry>
                </mxCell>
                <mxCell id="FruslANA-jMCCo8gGC-M-37" value="Provides" style="edgeLabel;html=1;align=center;verticalAlign=middle;resizable=0;points=[];rounded=1;" parent="FruslANA-jMCCo8gGC-M-36" vertex="1" connectable="0">
                    <mxGeometry x="-0.0667" y="1" relative="1" as="geometry">
                        <mxPoint as="offset"/>
                    </mxGeometry>
                </mxCell>
            </root>
        </mxGraphModel>
    </diagram>
    <diagram name="AIcruter System Architecture" id="project-architecture">
        <mxGraphModel dx="1208" dy="938" grid="1" gridSize="10" guides="1" tooltips="1" connect="1" arrows="1" fold="1" page="1" pageScale="1" pageWidth="1100" pageHeight="850" background="#ffffff" math="0" shadow="0" adaptiveColors="auto">
            <root>
                <mxCell id="0"/>
                <mxCell id="1" parent="0"/>
                <mxCell id="title" value="AIcruter - Complete Project Architecture" style="text;html=1;strokeColor=none;fillColor=none;align=center;verticalAlign=middle;whiteSpace=wrap;rounded=0;fontSize=24;fontStyle=1;" parent="1" vertex="1">
                    <mxGeometry x="300" y="20" width="500" height="40" as="geometry"/>
                </mxCell>
                <mxCell id="subtitle" value="AI-powered job recruitment platform" style="text;html=1;strokeColor=none;fillColor=none;align=center;verticalAlign=middle;whiteSpace=wrap;rounded=0;fontSize=16;" parent="1" vertex="1">
                    <mxGeometry x="350" y="60" width="400" height="30" as="geometry"/>
                </mxCell>
                <mxCell id="user-layer" value="User Layer" style="swimlane;horizontal=0;whiteSpace=wrap;html=1;fillColor=#f5f5f5;strokeColor=#666666;fontColor=#333333;rounded=0;" parent="1" vertex="1">
                    <mxGeometry x="50" y="110" width="1000" height="140" as="geometry"/>
                </mxCell>
                <mxCell id="job-seekers" value="Job Seekers" style="shape=umlActor;verticalLabelPosition=bottom;verticalAlign=top;html=1;outlineConnect=0;rounded=0;" parent="user-layer" vertex="1">
                    <mxGeometry x="190" y="40" width="30" height="60" as="geometry"/>
                </mxCell>
                <mxCell id="employers" value="Employers" style="shape=umlActor;verticalLabelPosition=bottom;verticalAlign=top;html=1;outlineConnect=0;rounded=0;" parent="user-layer" vertex="1">
                    <mxGeometry x="770" y="40" width="30" height="60" as="geometry"/>
                </mxCell>
                <mxCell id="admins" value="Administrators" style="shape=umlActor;verticalLabelPosition=bottom;verticalAlign=top;html=1;outlineConnect=0;rounded=0;" parent="user-layer" vertex="1">
                    <mxGeometry x="480" y="40" width="30" height="60" as="geometry"/>
                </mxCell>
                <mxCell id="frontend-layer" value="Frontend Layer" style="swimlane;whiteSpace=wrap;html=1;fillColor=#dae8fc;strokeColor=#6c8ebf;rounded=0;" parent="1" vertex="1">
                    <mxGeometry x="50" y="280" width="1000" height="120" as="geometry"/>
                </mxCell>
                <mxCell id="job-seeker-ui" value="Job Seeker Portal&#xa;- Profile Management&#xa;- Job Search/Applications&#xa;- Recommendation Dashboard" style="rounded=0;whiteSpace=wrap;html=1;fillColor=#d5e8d4;strokeColor=#82b366;" parent="frontend-layer" vertex="1">
                    <mxGeometry x="70" y="30" width="200" height="70" as="geometry"/>
                </mxCell>
                <mxCell id="employer-ui" value="Employer Portal&#xa;- Company Profile&#xa;- Job Posting Management&#xa;- Candidate Review Interface" style="rounded=0;whiteSpace=wrap;html=1;fillColor=#d5e8d4;strokeColor=#82b366;" parent="frontend-layer" vertex="1">
                    <mxGeometry x="720" y="30" width="200" height="70" as="geometry"/>
                </mxCell>
                <mxCell id="admin-ui" value="Admin Dashboard&#xa;- System Monitoring&#xa;- User Management&#xa;- Analytics" style="rounded=0;whiteSpace=wrap;html=1;fillColor=#d5e8d4;strokeColor=#82b366;" parent="frontend-layer" vertex="1">
                    <mxGeometry x="400" y="30" width="200" height="70" as="geometry"/>
                </mxCell>
                <mxCell id="api-layer" value="API Layer" style="swimlane;whiteSpace=wrap;html=1;fillColor=#e1d5e7;strokeColor=#9673a6;rounded=0;" parent="1" vertex="1">
                    <mxGeometry x="50" y="420" width="1000" height="80" as="geometry"/>
                </mxCell>
                <mxCell id="rest-apis" value="RESTful APIs (Spring Boot)" style="rounded=0;whiteSpace=wrap;html=1;fillColor=#f8cecc;strokeColor=#b85450;" parent="api-layer" vertex="1">
                    <mxGeometry x="70" y="30" width="860" height="30" as="geometry"/>
                </mxCell>
                <mxCell id="service-layer" value="Service Layer" style="swimlane;whiteSpace=wrap;html=1;fillColor=#fff2cc;strokeColor=#d6b656;rounded=0;" parent="1" vertex="1">
                    <mxGeometry x="50" y="520" width="1000" height="140" as="geometry"/>
                </mxCell>
                <mxCell id="profile-service" value="Profile Services&#xa;- Resume Management&#xa;- User Authentication" style="rounded=0;whiteSpace=wrap;html=1;" parent="service-layer" vertex="1">
                    <mxGeometry x="70" y="40" width="150" height="60" as="geometry"/>
                </mxCell>
                <mxCell id="job-service" value="Job Services&#xa;- Job Posting&#xa;- Application Processing" style="rounded=0;whiteSpace=wrap;html=1;" parent="service-layer" vertex="1">
                    <mxGeometry x="240" y="40" width="150" height="60" as="geometry"/>
                </mxCell>
                <mxCell id="matching-service" value="Matching Service&#xa;- Resume-Job Matching&#xa;- Candidate Ranking" style="rounded=0;whiteSpace=wrap;html=1;" parent="service-layer" vertex="1">
                    <mxGeometry x="410" y="40" width="150" height="60" as="geometry"/>
                </mxCell>
                <mxCell id="notification-service" value="Notification Service&#xa;- Email Alerts&#xa;- Status Updates" style="rounded=0;whiteSpace=wrap;html=1;" parent="service-layer" vertex="1">
                    <mxGeometry x="580" y="40" width="150" height="60" as="geometry"/>
                </mxCell>
                <mxCell id="analytics-service" value="Analytics Service&#xa;- Reporting&#xa;- Insights" style="rounded=0;whiteSpace=wrap;html=1;" parent="service-layer" vertex="1">
                    <mxGeometry x="750" y="40" width="150" height="60" as="geometry"/>
                </mxCell>
                <mxCell id="ai-layer" value="AI Layer" style="swimlane;whiteSpace=wrap;html=1;fillColor=#d5e8d4;strokeColor=#82b366;rounded=0;" parent="1" vertex="1">
                    <mxGeometry x="50" y="680" width="1000" height="110" as="geometry"/>
                </mxCell>
                <mxCell id="resume-analysis" value="Resume Analysis&#xa;(NLP)" style="ellipse;whiteSpace=wrap;html=1;fillColor=#dae8fc;strokeColor=#6c8ebf;rounded=0;" parent="ai-layer" vertex="1">
                    <mxGeometry x="90" y="30" width="140" height="60" as="geometry"/>
                </mxCell>
                <mxCell id="job-matching" value="Job-Candidate&#xa;Matching Algorithm" style="ellipse;whiteSpace=wrap;html=1;fillColor=#dae8fc;strokeColor=#6c8ebf;rounded=0;" parent="ai-layer" vertex="1">
                    <mxGeometry x="260" y="30" width="140" height="60" as="geometry"/>
                </mxCell>
                <mxCell id="candidate-ranking" value="Candidate Ranking&#xa;System" style="ellipse;whiteSpace=wrap;html=1;fillColor=#dae8fc;strokeColor=#6c8ebf;rounded=0;" parent="ai-layer" vertex="1">
                    <mxGeometry x="430" y="30" width="140" height="60" as="geometry"/>
                </mxCell>
                <mxCell id="recommendation-engine" value="Job Recommendation&#xa;Engine" style="ellipse;whiteSpace=wrap;html=1;fillColor=#dae8fc;strokeColor=#6c8ebf;rounded=0;" parent="ai-layer" vertex="1">
                    <mxGeometry x="600" y="30" width="140" height="60" as="geometry"/>
                </mxCell>
                <mxCell id="skill-extraction" value="Skill Extraction&#xa;&amp; Analysis" style="ellipse;whiteSpace=wrap;html=1;fillColor=#dae8fc;strokeColor=#6c8ebf;rounded=0;" parent="ai-layer" vertex="1">
                    <mxGeometry x="770" y="30" width="140" height="60" as="geometry"/>
                </mxCell>
                <mxCell id="data-layer" value="Data Layer" style="swimlane;whiteSpace=wrap;html=1;fillColor=#f8cecc;strokeColor=#b85450;rounded=0;" parent="1" vertex="1">
                    <mxGeometry x="50" y="810" width="1000" height="110" as="geometry"/>
                </mxCell>
                <mxCell id="user-data" value="User Data" style="shape=cylinder3;whiteSpace=wrap;html=1;boundedLbl=1;backgroundOutline=1;size=15;fillColor=#e1d5e7;strokeColor=#9673a6;rounded=0;" parent="data-layer" vertex="1">
                    <mxGeometry x="100" y="30" width="100" height="60" as="geometry"/>
                </mxCell>
                <mxCell id="resume-data" value="Resume&#xa;Repository" style="shape=cylinder3;whiteSpace=wrap;html=1;boundedLbl=1;backgroundOutline=1;size=15;fillColor=#e1d5e7;strokeColor=#9673a6;rounded=0;" parent="data-layer" vertex="1">
                    <mxGeometry x="230" y="30" width="100" height="60" as="geometry"/>
                </mxCell>
                <mxCell id="job-data" value="Job&#xa;Listings" style="shape=cylinder3;whiteSpace=wrap;html=1;boundedLbl=1;backgroundOutline=1;size=15;fillColor=#e1d5e7;strokeColor=#9673a6;rounded=0;" parent="data-layer" vertex="1">
                    <mxGeometry x="360" y="30" width="100" height="60" as="geometry"/>
                </mxCell>
                <mxCell id="application-data" value="Applications" style="shape=cylinder3;whiteSpace=wrap;html=1;boundedLbl=1;backgroundOutline=1;size=15;fillColor=#e1d5e7;strokeColor=#9673a6;rounded=0;" parent="data-layer" vertex="1">
                    <mxGeometry x="490" y="30" width="100" height="60" as="geometry"/>
                </mxCell>
                <mxCell id="analytics-data" value="Analytics&#xa;Data" style="shape=cylinder3;whiteSpace=wrap;html=1;boundedLbl=1;backgroundOutline=1;size=15;fillColor=#e1d5e7;strokeColor=#9673a6;rounded=0;" parent="data-layer" vertex="1">
                    <mxGeometry x="620" y="30" width="100" height="60" as="geometry"/>
                </mxCell>
                <mxCell id="ml-models" value="ML Models&#xa;&amp; Vectors" style="shape=cylinder3;whiteSpace=wrap;html=1;boundedLbl=1;backgroundOutline=1;size=15;fillColor=#e1d5e7;strokeColor=#9673a6;rounded=0;" parent="data-layer" vertex="1">
                    <mxGeometry x="750" y="30" width="100" height="60" as="geometry"/>
                </mxCell>
                <mxCell id="jobseeker-frontend" value="" style="endArrow=classic;startArrow=classic;html=1;rounded=0;exitX=0.5;exitY=0.5;exitDx=0;exitDy=0;exitPerimeter=0;entryX=0.25;entryY=0;entryDx=0;entryDy=0;" parent="1" source="job-seekers" target="job-seeker-ui" edge="1">
                    <mxGeometry width="50" height="50" relative="1" as="geometry">
                        <mxPoint x="520" y="410" as="sourcePoint"/>
                        <mxPoint x="570" y="360" as="targetPoint"/>
                    </mxGeometry>
                </mxCell>
                <mxCell id="employer-frontend" value="" style="endArrow=classic;startArrow=classic;html=1;rounded=0;exitX=0.5;exitY=0.5;exitDx=0;exitDy=0;exitPerimeter=0;entryX=0.75;entryY=0;entryDx=0;entryDy=0;" parent="1" source="employers" target="employer-ui" edge="1">
                    <mxGeometry width="50" height="50" relative="1" as="geometry">
                        <mxPoint x="520" y="410" as="sourcePoint"/>
                        <mxPoint x="570" y="360" as="targetPoint"/>
                    </mxGeometry>
                </mxCell>
                <mxCell id="admin-frontend" value="" style="endArrow=classic;startArrow=classic;html=1;rounded=0;exitX=0.5;exitY=0.5;exitDx=0;exitDy=0;exitPerimeter=0;entryX=0.5;entryY=0;entryDx=0;entryDy=0;" parent="1" source="admins" target="admin-ui" edge="1">
                    <mxGeometry width="50" height="50" relative="1" as="geometry">
                        <mxPoint x="520" y="410" as="sourcePoint"/>
                        <mxPoint x="570" y="360" as="targetPoint"/>
                    </mxGeometry>
                </mxCell>
                <mxCell id="frontend-api-1" value="" style="endArrow=classic;startArrow=classic;html=1;rounded=0;exitX=0.5;exitY=1;exitDx=0;exitDy=0;entryX=0.193;entryY=0;entryDx=0;entryDy=0;entryPerimeter=0;" parent="1" source="job-seeker-ui" target="rest-apis" edge="1">
                    <mxGeometry width="50" height="50" relative="1" as="geometry">
                        <mxPoint x="520" y="410" as="sourcePoint"/>
                        <mxPoint x="570" y="360" as="targetPoint"/>
                    </mxGeometry>
                </mxCell>
                <mxCell id="frontend-api-2" value="" style="endArrow=classic;startArrow=classic;html=1;rounded=0;exitX=0.5;exitY=1;exitDx=0;exitDy=0;entryX=0.5;entryY=0;entryDx=0;entryDy=0;" parent="1" source="admin-ui" target="rest-apis" edge="1">
                    <mxGeometry width="50" height="50" relative="1" as="geometry">
                        <mxPoint x="520" y="410" as="sourcePoint"/>
                        <mxPoint x="570" y="360" as="targetPoint"/>
                    </mxGeometry>
                </mxCell>
                <mxCell id="frontend-api-3" value="" style="endArrow=classic;startArrow=classic;html=1;rounded=0;exitX=0.5;exitY=1;exitDx=0;exitDy=0;entryX=0.8;entryY=0;entryDx=0;entryDy=0;entryPerimeter=0;" parent="1" source="employer-ui" target="rest-apis" edge="1">
                    <mxGeometry width="50" height="50" relative="1" as="geometry">
                        <mxPoint x="520" y="410" as="sourcePoint"/>
                        <mxPoint x="570" y="360" as="targetPoint"/>
                    </mxGeometry>
                </mxCell>
                <mxCell id="api-services" value="" style="endArrow=classic;startArrow=classic;html=1;rounded=0;exitX=0.5;exitY=1;exitDx=0;exitDy=0;entryX=0.5;entryY=0;entryDx=0;entryDy=0;" parent="1" source="rest-apis" target="service-layer" edge="1">
                    <mxGeometry width="50" height="50" relative="1" as="geometry">
                        <mxPoint x="520" y="510" as="sourcePoint"/>
                        <mxPoint x="570" y="460" as="targetPoint"/>
                    </mxGeometry>
                </mxCell>
                <mxCell id="services-ai" value="" style="endArrow=classic;startArrow=classic;html=1;rounded=0;exitX=0.5;exitY=1;exitDx=0;exitDy=0;entryX=0.5;entryY=0;entryDx=0;entryDy=0;" parent="1" source="service-layer" target="ai-layer" edge="1">
                    <mxGeometry width="50" height="50" relative="1" as="geometry">
                        <mxPoint x="520" y="610" as="sourcePoint"/>
                        <mxPoint x="570" y="560" as="targetPoint"/>
                    </mxGeometry>
                </mxCell>
                <mxCell id="ai-data" value="" style="endArrow=classic;startArrow=classic;html=1;rounded=0;exitX=0.5;exitY=1;exitDx=0;exitDy=0;entryX=0.5;entryY=0;entryDx=0;entryDy=0;" parent="1" source="ai-layer" target="data-layer" edge="1">
                    <mxGeometry width="50" height="50" relative="1" as="geometry">
                        <mxPoint x="520" y="710" as="sourcePoint"/>
                        <mxPoint x="570" y="660" as="targetPoint"/>
                    </mxGeometry>
                </mxCell>
                <mxCell id="desc" value="AIcruter System Architecture - Spring Boot Application (AicruterApplication.java)" style="text;html=1;strokeColor=none;fillColor=none;align=center;verticalAlign=middle;whiteSpace=wrap;rounded=0;fontStyle=1;" parent="1" vertex="1">
                    <mxGeometry x="300" y="940" width="500" height="30" as="geometry"/>
                </mxCell>
            </root>
        </mxGraphModel>
    </diagram>
</mxfile>